<?xml version="1.0" standalone="no"?>
<!DOCTYPE svg PUBLIC "-//W3C//DTD SVG 20010904//EN"
 "http://www.w3.org/TR/2001/REC-SVG-20010904/DTD/svg10.dtd">
<svg version="1.0" xmlns="http://www.w3.org/2000/svg"
 width="393.000000pt" height="393.000000pt" viewBox="0 0 393.000000 393.000000"
 preserveAspectRatio="xMidYMid meet">

<g transform="translate(0.000000,393.000000) scale(0.100000,-0.100000)"
fill="#000000" stroke="none">
<path d="M0 1965 l0 -1965 1965 0 1965 0 0 1965 0 1965 -1965 0 -1965 0 0
-1965z m1660 1755 c0 -5 -5 -12 -11 -16 -14 -8 -33 11 -25 25 7 11 36 4 36 -9z
m630 6 c0 -21 -21 -31 -30 -15 -5 7 -6 17 -4 21 9 14 34 9 34 -6z m-339 -105
c13 1 32 -2 42 -6 10 -4 17 -3 17 5 0 6 5 8 12 4 7 -5 28 -9 47 -11 18 -1 40
-8 47 -14 7 -6 18 -8 24 -4 5 3 10 1 10 -5 0 -7 8 -9 20 -5 11 3 20 3 20 -2 0
-5 10 -10 23 -11 43 -4 55 -8 71 -21 11 -10 16 -10 16 -2 0 7 5 9 10 6 6 -4 8
-10 5 -15 -7 -11 31 -24 45 -15 6 4 7 -1 3 -12 -6 -16 -5 -17 12 -3 10 8 16
10 12 4 -4 -7 14 -20 48 -35 34 -15 50 -26 42 -31 -11 -7 4 -11 29 -7 4 0 10
-3 13 -8 3 -5 26 -17 51 -27 97 -38 296 -152 391 -223 111 -85 204 -173 298
-282 61 -72 62 -73 42 -88 -12 -8 -29 -13 -39 -11 -9 2 -28 -6 -41 -18 -23
-22 -51 -22 -51 -2 0 6 7 8 14 5 10 -4 13 -1 9 9 -3 8 1 14 11 14 18 0 22 25
6 35 -15 9 -12 25 5 25 23 0 18 12 -20 53 -38 40 -48 46 -39 22 4 -8 10 -15
16 -15 5 0 6 -5 3 -11 -4 -6 -14 -8 -23 -4 -10 4 -6 -6 11 -22 15 -16 27 -32
27 -36 0 -15 -48 -6 -65 13 -10 11 -22 17 -28 13 -5 -3 -7 -2 -4 4 3 5 -17 32
-46 59 -28 27 -40 36 -27 20 l25 -29 -25 14 c-14 7 -29 12 -34 11 -5 -2 -6 9
-4 23 3 14 1 28 -4 31 -4 3 -8 2 -7 -3 1 -4 1 -16 0 -26 -1 -17 -2 -17 -17 -3
-12 12 -20 13 -35 6 -22 -12 -25 -1 -6 20 10 12 9 12 -4 2 -9 -6 -19 -9 -23
-5 -4 4 -4 -1 0 -11 5 -14 4 -17 -4 -12 -7 4 -12 15 -12 24 0 13 -2 14 -9 4
-6 -10 -10 -10 -20 2 -7 8 -22 13 -34 10 -11 -2 -36 5 -55 17 -49 28 -50 17
-2 -15 63 -41 47 -39 -23 4 -214 129 -419 202 -608 215 -50 3 -69 1 -69 -8 0
-7 -3 -23 -6 -37 -4 -20 -3 -22 5 -9 9 15 19 15 88 4 156 -26 336 -83 452
-146 79 -42 223 -141 244 -168 6 -8 -24 10 -68 40 -86 61 -131 87 -122 72 4
-6 -6 -22 -22 -37 l-28 -27 -54 27 c-30 15 -90 43 -134 61 -44 18 -69 32 -55
30 14 -1 30 -6 36 -9 6 -4 10 1 9 12 -1 22 -15 40 -15 20 0 -9 -3 -10 -13 -1
-8 6 -17 7 -23 2 -5 -6 -21 -4 -39 4 -22 9 -25 13 -10 13 28 -1 49 5 57 17 5
6 12 5 20 -3 6 -6 20 -12 29 -12 11 0 16 -7 14 -17 -1 -10 0 -12 2 -5 3 6 12
12 20 12 49 0 -52 36 -200 71 -93 22 -132 21 -50 -2 26 -7 55 -14 63 -15 62
-10 75 -17 65 -33 -4 -8 -12 -8 -26 -1 -14 8 -19 7 -20 -2 0 -7 -4 -4 -9 7 -8
18 -9 18 -9 2 -1 -11 -7 -17 -13 -14 -7 2 -12 12 -12 21 1 9 -2 16 -7 16 -5 0
-9 -12 -9 -26 0 -25 -2 -26 -37 -20 -21 3 -109 6 -195 6 -131 0 -158 2 -158
14 0 8 -4 18 -10 21 -6 3 -7 -1 -4 -12 3 -11 0 -9 -8 5 -8 12 -17 20 -21 16
-10 -10 -59 5 -52 16 3 6 -3 10 -15 10 -12 0 -19 -3 -17 -7 3 -5 -14 -9 -37
-9 -103 -4 -393 -131 -526 -230 -41 -31 -64 -44 -50 -29 36 39 209 151 293
190 105 48 216 83 352 112 140 29 163 38 121 49 -71 17 -254 -18 -424 -82
-126 -47 -352 -182 -439 -263 -18 -16 -33 -26 -33 -21 0 5 5 12 12 16 7 5 -4
12 -28 19 -30 8 -35 12 -21 18 9 3 17 2 17 -4 0 -6 7 -6 20 1 18 10 24 7 21
-12 -1 -11 17 -10 23 1 6 10 -10 25 -37 34 -13 5 -16 3 -11 -6 5 -9 4 -9 -6 0
-11 10 -11 15 1 30 7 10 -4 1 -25 -20 -33 -33 -36 -40 -25 -55 11 -14 11 -15
-1 -4 -17 14 -70 16 -70 2 0 -5 -10 -10 -22 -10 -12 0 -19 -3 -15 -6 3 -3 -7
-17 -23 -31 -33 -28 -134 -159 -168 -218 -125 -222 -191 -441 -202 -675 l-7
-145 -1 140 c-1 85 4 172 12 222 35 196 124 411 247 597 21 32 39 60 39 63 0
2 13 15 29 29 27 22 29 28 20 54 l-11 29 -54 -67 c-30 -37 -52 -73 -49 -80 3
-7 1 -11 -4 -8 -18 11 -141 -208 -229 -404 -21 -49 -11 2 17 83 58 168 172
357 305 508 23 25 52 61 66 79 13 18 40 43 60 55 19 12 46 33 60 45 83 74 290
194 445 259 44 18 87 40 97 48 11 10 18 11 23 3 3 -5 11 -8 16 -4 5 3 7 10 4
15 -4 5 5 14 19 21 14 6 26 15 26 20 0 5 4 7 9 3 5 -3 13 0 16 6 4 5 14 8 22
5 11 -5 13 -2 9 11 -6 14 -4 15 5 6 14 -14 37 -7 63 20 14 14 21 16 26 7 6
-10 13 -9 31 4 13 9 34 16 47 16 13 0 21 4 18 8 -3 4 5 8 17 9 51 1 58 3 51
16 -6 10 -4 10 7 0 15 -15 33 -17 25 -4 -3 4 6 6 21 3 20 -4 24 -2 18 9 -7 12
-6 12 7 1 8 -6 26 -11 39 -11z m-1293 -319 c2 -7 -3 -12 -12 -12 -9 0 -16 7
-16 16 0 17 22 14 28 -4z m-15 -179 c4 -3 -32 -47 -81 -97 -48 -50 -112 -126
-141 -168 -58 -82 -75 -95 -43 -31 30 57 102 152 177 232 67 71 76 77 88 64z
m2718 -75 c119 -132 201 -250 184 -266 -4 -4 -12 1 -19 12 -27 44 -110 148
-184 231 -72 80 -87 105 -63 105 4 0 41 -37 82 -82z m205 43 c-9 -14 -33 -14
-41 -1 -4 6 -1 18 6 26 11 13 14 13 27 0 8 -8 11 -19 8 -25z m-3181 9 c-3 -5
-10 -10 -16 -10 -5 0 -9 5 -9 10 0 6 7 10 16 10 8 0 12 -4 9 -10z m1862 -26
c-3 -3 -12 -4 -19 -1 -8 3 -5 6 6 6 11 1 17 -2 13 -5z m40 -10 c-3 -3 -12 -4
-19 -1 -8 3 -5 6 6 6 11 1 17 -2 13 -5z m-136 -69 c259 -48 478 -164 655 -347
97 -100 179 -211 219 -292 114 -239 156 -473 121 -671 -32 -179 -56 -226 -31
-59 30 203 16 360 -51 556 -70 201 -146 319 -306 474 -110 106 -209 174 -327
225 -172 74 -294 100 -470 100 -283 0 -540 -85 -751 -247 -192 -147 -359 -438
-405 -704 -17 -101 -20 -364 -4 -440 5 -25 12 -63 14 -85 l5 -40 -15 45 c-50
150 -64 310 -41 467 46 305 210 590 453 784 132 105 350 198 548 234 99 18
287 18 386 0z m798 -28 c0 -9 -2 -8 -6 1 -2 6 -10 9 -15 6 -7 -4 -8 -2 -4 5 9
13 26 5 25 -12z m243 -65 c-7 -2 -9 -9 -6 -14 4 -7 2 -8 -4 -4 -6 4 -9 13 -6
21 4 8 11 12 17 8 8 -5 7 -8 -1 -11z m-1004 -36 c107 -23 177 -48 267 -95 90
-46 111 -59 135 -82 10 -9 42 -34 71 -56 98 -72 229 -226 281 -328 31 -60 79
-219 94 -313 17 -101 15 -346 -3 -405 -5 -17 -7 40 -5 142 5 185 -4 259 -44
385 -142 443 -565 748 -1036 747 -144 -1 -219 -12 -337 -51 -358 -117 -614
-398 -707 -779 -25 -98 -30 -353 -11 -466 18 -99 15 -130 -3 -38 -6 32 -16 74
-22 93 -16 49 -15 283 1 355 32 146 110 354 151 400 9 11 33 47 53 80 65 109
181 212 337 300 36 20 73 39 83 42 9 3 17 10 17 15 0 5 4 7 8 4 4 -2 35 4 67
15 33 11 71 23 85 25 14 3 32 7 40 10 18 7 66 13 156 22 84 9 224 -1 322 -22z
m-1328 20 c0 -2 -7 -7 -16 -10 -8 -3 -12 -2 -9 4 6 10 25 14 25 6z m2133 -134
c171 -180 308 -494 320 -736 3 -45 3 -67 1 -51 -14 108 -40 221 -71 308 -70
202 -125 301 -245 445 -87 103 -90 123 -5 34z m-2066 -19 c-78 -103 -144 -207
-192 -302 -57 -113 -69 -147 -106 -281 -20 -75 -27 -91 -23 -55 19 170 128
424 247 579 48 62 109 127 115 122 2 -2 -17 -30 -41 -63z m2466 -21 c57 -94
111 -216 137 -309 10 -37 17 -69 16 -70 -1 -2 -17 33 -35 76 -50 121 -157 297
-178 293 -27 -6 -27 -8 5 -54 68 -100 131 -259 162 -408 23 -113 40 -432 24
-443 -5 -3 -8 45 -8 111 2 135 -21 284 -62 412 -35 106 -136 306 -153 302 -7
-1 -10 2 -6 8 8 12 -33 72 -45 65 -4 -3 -6 4 -3 15 3 11 12 20 19 20 8 0 14 5
14 11 0 6 9 9 20 6 11 -3 17 -1 14 4 -9 14 3 39 19 39 7 0 34 -35 60 -78z
m295 -209 c-4 -22 -32 -38 -52 -30 -21 8 -21 43 1 56 22 12 55 -5 51 -26z
m-3413 -3 c0 -18 -6 -26 -23 -28 -24 -4 -38 18 -28 44 3 9 15 14 28 12 17 -2
23 -10 23 -28z m-146 -275 c-9 -36 -9 -52 -1 -66 16 -26 15 -58 -2 -65 -22 -8
-36 -116 -38 -291 -1 -114 -3 -144 -9 -108 -4 28 -8 124 -8 215 0 91 -5 180
-10 197 -8 27 -6 35 8 45 9 7 28 38 41 70 14 31 26 55 28 53 2 -1 -2 -24 -9
-50z m3675 -12 c3 -10 6 -22 7 -28 1 -5 12 -20 25 -32 28 -26 30 -36 9 -53
-13 -10 -14 -39 -11 -169 4 -171 -2 -311 -12 -311 -4 0 -5 60 -4 132 4 151
-13 322 -34 339 -17 14 -19 55 -3 65 7 4 9 21 6 40 -6 35 7 47 17 17z m-3167
-240 c-2 -16 -4 -5 -4 22 0 28 2 40 4 28 2 -13 2 -35 0 -50z m2880 -225 c-3
-7 -5 -2 -5 12 0 14 2 19 5 13 2 -7 2 -19 0 -25z m-2870 -35 c-3 -10 -5 -2 -5
17 0 19 2 27 5 18 2 -10 2 -26 0 -35z m-457 23 c0 -3 -4 -8 -10 -11 -5 -3 -10
-1 -10 4 0 6 5 11 10 11 6 0 10 -2 10 -4z m3560 0 c0 -3 -4 -8 -10 -11 -5 -3
-10 -1 -10 4 0 6 5 11 10 11 6 0 10 -2 10 -4z m-3093 -93 c-3 -10 -5 -4 -5 12
0 17 2 24 5 18 2 -7 2 -21 0 -30z m-523 -223 c9 -36 18 -69 20 -75 5 -15 17
-48 27 -73 5 -13 9 -33 9 -45 0 -18 -2 -19 -10 -7 -13 20 -56 156 -63 200 -4
19 -12 69 -20 110 -8 41 -12 80 -8 85 3 6 11 -21 17 -60 7 -38 19 -99 28 -135z
m3247 167 c9 -18 9 -20 -2 -9 -7 6 -22 12 -32 12 -16 0 -17 3 -7 15 14 17 26
12 41 -18z m-2714 -9 c-3 -7 -5 -2 -5 12 0 14 2 19 5 13 2 -7 2 -19 0 -25z
m3144 -70 c-13 -85 -46 -197 -65 -224 -8 -11 -2 27 15 91 16 61 34 137 40 170
16 82 23 53 10 -37z m-443 49 c4 -21 -25 -34 -40 -19 -8 8 -8 16 2 27 16 19
34 15 38 -8z m-2691 -29 c-3 -8 -6 -5 -6 6 -1 11 2 17 5 13 3 -3 4 -12 1 -19z
m2340 -10 c-3 -7 -5 -2 -5 12 0 14 2 19 5 13 2 -7 2 -19 0 -25z m334 -9 c9 0
10 -2 2 -5 -15 -7 -53 13 -53 28 0 6 8 4 18 -5 10 -10 25 -17 33 -18z m-2664
-21 c-3 -8 -6 -5 -6 6 -1 11 2 17 5 13 3 -3 4 -12 1 -19z m251 -103 c0 -5 -6
4 -13 20 -8 17 -14 37 -14 45 0 8 7 -1 14 -20 7 -19 13 -39 13 -45z m-204 -25
c5 -17 4 -20 -2 -10 -5 8 -13 26 -16 40 -5 17 -4 20 2 10 5 -8 13 -26 16 -40z
m36 -85 c0 -5 -5 -3 -10 5 -5 8 -10 20 -10 25 0 6 5 3 10 -5 5 -8 10 -19 10
-25z m50 -99 c0 -12 -5 -7 -19 24 -11 24 -11 24 3 6 9 -11 16 -24 16 -30z
m2311 -22 c-16 -33 -39 -72 -50 -88 -11 -17 -17 -34 -14 -39 3 -6 1 -7 -4 -4
-11 7 -49 -42 -45 -56 1 -5 -1 -6 -6 -3 -10 6 -78 -61 -70 -69 3 -3 15 6 27
21 12 15 23 25 25 23 7 -7 -129 -150 -144 -152 -25 -4 -41 -18 -34 -29 4 -6 3
-8 -3 -5 -14 9 -55 -22 -47 -35 4 -7 2 -8 -4 -4 -6 3 -51 -16 -99 -44 -267
-154 -512 -223 -748 -214 -178 8 -359 40 -381 69 -12 17 -29 21 -19 5 3 -5 2
-10 -3 -10 -6 0 -12 6 -15 14 -3 8 -23 20 -44 26 -79 26 -254 131 -296 178
-11 11 -25 18 -33 15 -13 -5 -72 35 -73 50 -1 4 15 -4 34 -19 54 -41 42 -23
-18 26 -28 24 -43 34 -33 22 11 -12 14 -22 9 -22 -6 0 -36 29 -68 65 -31 36
-51 65 -44 65 8 0 6 7 -6 20 -10 11 -21 17 -26 15 -4 -3 -11 0 -15 6 -4 8 -3
9 4 5 27 -17 9 14 -22 37 -19 15 -39 41 -45 59 -11 31 -10 31 36 -17 27 -27
61 -65 76 -85 137 -172 352 -329 552 -404 178 -65 409 -96 584 -77 133 14 308
57 411 100 68 28 105 48 278 152 29 17 83 65 120 107 37 41 92 100 122 132 30
31 78 95 105 142 57 98 72 110 26 22z m-2148 17 c43 -64 195 -218 279 -282
138 -103 329 -182 512 -210 119 -19 363 -6 479 24 194 51 382 161 527 306 47
47 70 66 51 42 -117 -148 -265 -255 -479 -345 -59 -25 -83 -40 -124 -78 -10
-10 -18 -15 -18 -11 0 3 -10 -3 -23 -15 -29 -28 -146 -41 -292 -35 -157 7
-366 56 -350 83 3 6 -1 7 -9 4 -14 -6 -21 10 -17 38 0 4 -14 12 -32 18 -32 10
-6 7 43 -4 14 -4 6 2 -18 13 -23 11 -50 18 -60 15 -13 -4 -14 -3 -4 4 11 7 10
10 -3 16 -9 3 -22 3 -27 -1 -6 -3 -8 -1 -4 5 6 11 -30 28 -49 23 -5 -1 -7 1
-3 5 5 4 -20 26 -55 48 -81 53 -231 198 -307 297 -33 44 -56 79 -51 79 4 0 20
-17 34 -39z m-183 -31 c6 -11 8 -20 6 -20 -3 0 -10 9 -16 20 -6 11 -8 20 -6
20 3 0 10 -9 16 -20z m50 -10 c6 -11 8 -20 6 -20 -3 0 -10 9 -16 20 -6 11 -8
20 -6 20 3 0 10 -9 16 -20z m2880 -231 c0 -5 -7 -9 -15 -9 -15 0 -20 12 -9 23
8 8 24 -1 24 -14z m-2870 -64 c13 -14 21 -25 18 -25 -2 0 -15 11 -28 25 -13
14 -21 25 -18 25 2 0 15 -11 28 -25z m635 -145 c3 -5 1 -10 -4 -10 -6 0 -11 5
-11 10 0 6 2 10 4 10 3 0 8 -4 11 -10z m-454 -27 c13 -16 12 -17 -3 -4 -10 7
-18 15 -18 17 0 8 8 3 21 -13z m464 -3 c3 -6 -1 -7 -9 -4 -18 7 -21 14 -7 14
6 0 13 -4 16 -10z m1090 -170 c-3 -5 -12 -10 -18 -10 -7 0 -6 4 3 10 19 12 23
12 15 0z"/>
<path d="M2066 3277 c3 -10 9 -15 12 -12 3 3 0 11 -7 18 -10 9 -11 8 -5 -6z"/>
<path d="M1743 3155 c0 -7 6 -12 14 -11 19 3 21 19 2 21 -9 2 -16 -3 -16 -10z"/>
<path d="M2147 3133 c-10 -10 -8 -33 3 -33 5 0 6 7 3 17 -4 9 -2 14 3 11 5 -3
18 -2 29 3 18 7 17 8 -6 8 -14 1 -29 -2 -32 -6z"/>
<path d="M2107 3109 c7 -7 15 -10 18 -7 3 3 -2 9 -12 12 -14 6 -15 5 -6 -5z"/>
<path d="M2170 3100 c0 -6 7 -10 15 -10 8 0 15 2 15 4 0 2 -7 6 -15 10 -8 3
-15 1 -15 -4z"/>
<path d="M2640 3096 c0 -2 7 -7 16 -10 8 -3 12 -2 9 4 -6 10 -25 14 -25 6z"/>
<path d="M2466 3070 c6 -6 24 -13 40 -15 l29 -5 -25 15 c-30 17 -59 20 -44 5z"/>
<path d="M2547 3033 c-11 -10 -8 -20 6 -20 8 0 14 6 14 14 0 14 -10 17 -20 6z"/>
<path d="M784 3016 c-3 -8 -4 -27 -2 -43 2 -21 8 -27 22 -25 10 2 15 -1 12 -7
-4 -5 -1 -13 5 -17 8 -5 9 -3 4 6 -5 9 -2 10 14 5 29 -9 45 3 30 21 -6 8 -9
17 -5 21 3 3 6 1 6 -5 0 -18 21 -14 36 6 16 21 17 32 3 32 -5 0 -8 -4 -4 -10
3 -5 -8 -8 -27 -6 -41 5 -68 15 -68 27 0 14 -20 10 -26 -5z"/>
<path d="M2480 3026 c0 -2 7 -7 16 -10 8 -3 12 -2 9 4 -6 10 -25 14 -25 6z"/>
<path d="M2585 3020 c3 -5 11 -10 16 -10 6 0 7 5 4 10 -3 6 -11 10 -16 10 -6
0 -7 -4 -4 -10z"/>
<path d="M755 2979 c-4 -6 -5 -12 -2 -15 2 -3 7 2 10 11 7 17 1 20 -8 4z"/>
<path d="M1005 2971 c-3 -6 -3 -11 2 -11 4 0 1 -5 -7 -10 -12 -7 -10 -9 6 -8
12 1 21 8 20 15 -3 19 -13 26 -21 14z"/>
<path d="M3131 2964 c0 -11 3 -14 6 -6 3 7 2 16 -1 19 -3 4 -6 -2 -5 -13z"/>
<path d="M744 2920 c0 -13 4 -16 10 -10 7 7 7 13 0 20 -6 6 -10 3 -10 -10z"/>
<path d="M3230 2850 c0 -7 7 -10 15 -6 8 3 14 1 12 -3 -1 -5 3 -9 8 -10 21 -2
9 24 -12 27 -13 2 -23 -2 -23 -8z"/>
<path d="M945 920 c3 -5 8 -10 11 -10 2 0 4 5 4 10 0 6 -5 10 -11 10 -5 0 -7
-4 -4 -10z"/>
<path d="M985 880 c10 -11 20 -20 23 -20 3 0 -3 9 -13 20 -10 11 -20 20 -23
20 -3 0 3 -9 13 -20z"/>
<path d="M2885 839 c-28 -27 -42 -47 -33 -44 15 6 95 95 86 95 -2 0 -26 -23
-53 -51z"/>
<path d="M1578 513 c7 -3 16 -2 19 1 4 3 -2 6 -13 5 -11 0 -14 -3 -6 -6z"/>
<path d="M1527 679 c7 -7 15 -10 18 -7 3 3 -2 9 -12 12 -14 6 -15 5 -6 -5z"/>
</g>
</svg>
